<?xml version="1.0" standalone="no"?>
<!DOCTYPE svg PUBLIC "-//W3C//DTD SVG 1.1//EN" "http://www.w3.org/Graphics/SVG/1.1/DTD/svg11.dtd" >
<svg>
<metadata>
Created by FontForge 20090914 at Fri Feb 24 03:49:23 2012
 By root
2008 Iconian Fonts - www.iconian.com
</metadata>
<defs>
<font id="4114Blaster" horiz-adv-x="685" >
  <font-face 
    font-family="4114 Blaster"
    font-weight="400"
    font-stretch="normal"
    units-per-em="1000"
    panose-1="0 0 0 0 0 0 0 0 0 0"
    ascent="800"
    descent="-200"
    x-height="468"
    cap-height="467"
    bbox="-48 -150 1329 642"
    underline-thickness="50"
    underline-position="-75"
    unicode-range="U+0020-U+2122"
  />
<missing-glyph horiz-adv-x="500" 
 />
    <glyph glyph-name=".notdef" horiz-adv-x="500" 
 />
    <glyph glyph-name=".null" horiz-adv-x="0" 
 />
    <glyph glyph-name="nonmarkingreturn" horiz-adv-x="500" 
 />
    <glyph glyph-name="space" unicode=" " horiz-adv-x="459" 
 />
    <glyph glyph-name="space" unicode="&#xa0;" horiz-adv-x="459" 
 />
    <glyph glyph-name="exclam" unicode="!" horiz-adv-x="277" 
d="M174 210v182q0 50 62 79h-131q-56 0 -56 -62v-199h125zM172 0v125h-125v-125h125z" />
    <glyph glyph-name="FL0022h" unicode="&#x22;" horiz-adv-x="394" 
d="M354 283v187h-127v-187h127zM177 282v187h-127v-187h127z" />
    <glyph glyph-name="FL0023h" unicode="#" horiz-adv-x="666" 
d="M393 258v-74h-343v-106h112v-78h115v78h116v-78h115v78h118v106h-118v74h118v106h-118v104h-115v-104h-116v104h-115v-104h-112v-106h343z" />
    <glyph glyph-name="FL0024h" unicode="$" horiz-adv-x="691" 
d="M200 183h-100q-50 0 -50 58v173q7 55 65 55h180v96h114v-96h240v-99h-240v-269h88q46 0 49 31v27q-2 30 -46 30v97h100q24 0 37.5 -15t13.5 -45v-170q-7 -55 -65 -55h-177v-87h-115v87h-243v100h243v269h-91q-46 0 -49 -31v-27q2 -29 46 -29v-100z" />
    <glyph glyph-name="FL0025h" unicode="%" horiz-adv-x="975" 
d="M341 0l427 468h-119l-424 -468h116zM325 469h-190q-77 -6 -84 -81h-1v-118q9 -76 85 -82h190q74 7 83 82v118h-1q-8 72 -82 81zM115 375q4 28 39 28h148q37 0 41 -28v-85q0 -36 -41 -36h-148q-39 0 -39 34v87zM852 281h-190q-77 -6 -84 -81h-1v-118q9 -76 85 -82h190
q74 7 83 82v118h-1q-8 72 -82 81zM642 187q4 28 39 28h148q37 0 41 -28v-85q0 -36 -41 -36h-148q-39 0 -39 34v87z" />
    <glyph glyph-name="FL0026h" unicode="&#x26;" horiz-adv-x="859" 
d="M819 174v104h-527v-104h238q-1 -34 -15 -54t-43 -20h-251q-63 0 -63 55v160q0 51 65 51h255v103h-295q-114 -23 -133 -106v-262q14 -87 133 -101h324q117 12 133 100v74h179z" />
    <glyph glyph-name="FL0027h" unicode="'" horiz-adv-x="217" 
d="M177 283v187h-127v-187h127z" />
    <glyph glyph-name="FL0028h" unicode="(" horiz-adv-x="350" 
d="M183 0q-119 14 -133 101v262q20 84 133 104h125v-101h-85q-65 0 -65 -49v-164q0 -51 63 -51h89v-102h-127z" />
    <glyph glyph-name="FL0029h" unicode=")" horiz-adv-x="350" 
d="M177 0q119 14 133 101v262q-20 84 -133 104h-125v-101h85q65 0 65 -49v-164q0 -51 -63 -51h-89v-102h127z" />
    <glyph glyph-name="FL002Ah" unicode="*" horiz-adv-x="512" 
d="M115 353l-64 -66h143q19 0 32 9.5t25 24.5l2 29l20 -29q11 -15 24 -24.5t32 -9.5h143l-64 67h-65l-37 59l36 57h65l65 66h-143q-20 0 -33 -9t-24 -24l-20 -31l-2 31q-11 15 -24.5 24t-31.5 9h-144l64 -65h65l41 -62l-41 -56h-64z" />
    <glyph glyph-name="FL002Bh" unicode="+" horiz-adv-x="435" 
d="M169 60v120h-119v106h119v119h106v-119h120v-106h-120v-120h-106z" />
    <glyph glyph-name="FL002Ch" unicode="," horiz-adv-x="215" 
d="M175 0v125h-125v-266z" />
    <glyph glyph-name="FL002Dh" unicode="-" horiz-adv-x="348" 
d="M308 180v106h-258v-106h258z" />
    <glyph glyph-name="FL002Eh" unicode="." horiz-adv-x="215" 
d="M175 0v125h-125v-125h125z" />
    <glyph glyph-name="FL002Fh" unicode="/" horiz-adv-x="633" 
d="M166 0l427 468h-119l-424 -468h116z" />
    <glyph glyph-name="FL0030h" unicode="0" horiz-adv-x="686" 
d="M509 468h-317q-128 -11 -141 -135h-1v-197q15 -126 142 -136h317q123 13 137 136v197h-1q-14 122 -136 135zM159 312q7 46 65 46h246q62 0 69 -46v-142q0 -60 -69 -60h-246q-65 0 -65 57v145z" />
    <glyph glyph-name="FL0031h" unicode="1" horiz-adv-x="350" 
d="M198 0v367h-148v101h260v-468h-112z" />
    <glyph glyph-name="FL0032h" unicode="2" horiz-adv-x="691" 
d="M200 189l399 -1q51 0 51 58v168q-7 55 -65 55h-534v-99h446q46 0 49 -31v-27q-2 -29 -46 -29h-401q-24 0 -37 -13.5t-13 -43.5v-170q7 -55 65 -55h535v100h-446q-46 0 -49 31v27q1 30 46 30z" />
    <glyph glyph-name="FL0033h" unicode="3" horiz-adv-x="623" 
d="M449 0q119 14 133 101v262q-20 84 -133 104h-398v-101h358q64 0 64 -49v-31h-258v-106h258l1 -25q2 -53 -63 -53h-362v-102h400z" />
    <glyph glyph-name="FL0034h" unicode="4" horiz-adv-x="620" 
d="M50 363v-237h417v-126h113v468h-113v-239h-309v86q0 51 65 51l-40 101q-113 -20 -133 -104z" />
    <glyph glyph-name="FL0035h" unicode="5" horiz-adv-x="691" 
d="M500 189l-399 -1q-50 0 -50 58v223h550v-99h-445v-54q1 -14 11 -23.5t33 -9.5h401q24 0 37 -13.5t13 -43.5v-170q-7 -55 -65 -55h-535v100h446q46 0 49 31v27q-2 30 -46 30z" />
    <glyph glyph-name="FL0036h" unicode="6" horiz-adv-x="680" 
d="M530 174h-238v104h348v-178q-16 -88 -133 -100h-324q-119 14 -133 101v262q20 84 133 104h324v-101h-284q-65 0 -65 -51v-160q0 -55 63 -55h251q30 0 44 20.5t14 53.5z" />
    <glyph glyph-name="FL0037h" unicode="7" horiz-adv-x="619" 
d="M49 376v92h400q129 0 129 -132v-336h-107v301q0 75 -78 75h-344z" />
    <glyph glyph-name="FL0038h" unicode="8" horiz-adv-x="686" 
d="M187 468q-122 -13 -136 -135h-1v-197q14 -123 137 -136h317q127 10 142 136v197h-1q-14 124 -141 135h-317zM537 312v-145q0 -57 -65 -57h-246q-69 0 -69 60v8h262v108h-262v26q7 46 69 46h246q58 0 65 -46z" />
    <glyph glyph-name="FL0039h" unicode="9" horiz-adv-x="680" 
d="M160 292h238v-104h-348v178q16 88 133 100h324q119 -14 133 -101v-262q-20 -84 -133 -104h-324v101h284q65 0 65 51v160q0 55 -63 55h-251q-30 0 -44 -20.5t-14 -53.5z" />
    <glyph glyph-name="FL003Ah" unicode=":" horiz-adv-x="215" 
d="M175 0v125h-125v-125h125zM176 180v125h-125v-125h125z" />
    <glyph glyph-name="FL003Bh" unicode=";" horiz-adv-x="215" 
d="M176 180v125h-125v-125h125zM175 0v125h-125v-266z" />
    <glyph glyph-name="FL003Ch" unicode="&#x3c;" horiz-adv-x="448" 
d="M406 0v106l-200 188l64 91q26 50 138 83h-172q-53 0 -84 -39l-102 -149l236 -209v-71h120z" />
    <glyph glyph-name="FL003Dh" unicode="=" horiz-adv-x="435" 
d="M395 260v106h-345v-106h345zM395 80v106h-345v-106h345z" />
    <glyph glyph-name="FL003Eh" unicode="&#x3e;" horiz-adv-x="448" 
d="M52 0v106l200 188l-64 91q-26 50 -138 83h172q52 0 84 -39l102 -149l-236 -209v-71h-120z" />
    <glyph glyph-name="FL003Fh" unicode="?" horiz-adv-x="691" 
d="M213 188h386q51 0 51 58v168q-7 55 -65 55h-534v-99h446q46 0 49 -31v-27q-2 -30 -46 -30h-205q-12 0 -26.5 -3t-26.5 -10t-20.5 -17.5t-8.5 -25.5v-38zM340 0v125h-125v-125h125z" />
    <glyph glyph-name="FL0040h" unicode="@" horiz-adv-x="851" 
d="M584 222h68v104q-11 66 -70 73h-302q-61 -12 -69 -76v-172q13 -62 70 -77h527v371q-15 122 -137 135h-479q-128 -12 -141 -136h-1v-419q15 -126 142 -136h479q31 4 55.5 10.5t42 19t28.5 32.5t14 50h-593q-59 0 -59 55v371q3 23 19.5 32.5t45.5 9.5h413q29 0 44 -9
t19 -32v-269h-402q-8 0 -12.5 7.5t-5.5 17.5v105q0 10 3 19.5t13 10.5h269q3 0 6 -4t5.5 -11t4 -14t3.5 -13v-55z" />
    <glyph glyph-name="FL0041h" unicode="A" horiz-adv-x="758" 
d="M452 470h-130l-101.5 -132.5l-86 -114.5t-60 -84.5t-23.5 -40.5q-3 -32 25 -63t78 -34h179v102h-97q-24 1 -24 21q0 9 5 22l166 226l203 -372h132z" />
    <glyph glyph-name="FL0042h" unicode="B" 
d="M508 468h-458v-468h458q124 14 137 136v197h-1q-13 121 -136 135zM293 283v-103h245v-10q0 -60 -69 -60h-311v248h311q62 0 69 -46l-5 -30z" />
    <glyph glyph-name="FL0043h" unicode="C" horiz-adv-x="680" 
d="M640 100q-16 -88 -133 -100h-324q-119 14 -133 101v262q20 84 133 104h324q117 -21 133 -102v-68h-108q0 69 -61 69h-248q-65 0 -65 -51v-160q0 -55 63 -55h251q60 0 60 66h108v-66z" />
    <glyph glyph-name="FL0044h" unicode="D" 
d="M508 468h-458v-468h458q123 13 137 136v197h-1q-14 122 -136 135zM158 358h311q62 0 69 -46v-142q0 -60 -69 -60h-311v248z" />
    <glyph glyph-name="FL0045h" unicode="E" horiz-adv-x="680" 
d="M530 292h-238v-104h348v178q-16 88 -133 100h-324q-119 -14 -133 -101v-262q20 -84 133 -104h324v101h-284q-65 0 -65 51v160q0 55 63 55h251q30 0 44 -20.5t14 -53.5z" />
    <glyph glyph-name="FL0046h" unicode="F" horiz-adv-x="621" 
d="M159 0v126h256v103h-257v86q0 51 65 51h358v101h-398q-113 -20 -133 -104v-363h109z" />
    <glyph glyph-name="FL0047h" unicode="G" horiz-adv-x="622" 
d="M582 101v127h-107v-61q0 -66 -61 -66h-193q-63 0 -63 54v160q0 51 65 51h358v101h-398q-113 -20 -133 -104v-262q14 -87 133 -101h266q116 14 133 101z" />
    <glyph glyph-name="FL0048h" unicode="H" horiz-adv-x="620" 
d="M159 0v126h308v-126h113v468h-113v-239h-309v239h-108v-468h109z" />
    <glyph glyph-name="FL0049h" unicode="I" horiz-adv-x="263" 
d="M114 0v315q0 51 -64 51l40 101q113 -20 133 -104v-363h-109z" />
    <glyph glyph-name="k" unicode="J" horiz-adv-x="624" 
d="M50 101v66h108q0 -66 60 -66h193q63 0 63 54v315h110v-369q-17 -88 -135 -101h-266q-116 14 -133 101z" />
    <glyph glyph-name="FL004Bh" unicode="K" horiz-adv-x="645" 
d="M50 0h141l149 207l143 -136v-71h120v106l-203 185l67 94q26 50 138 83h-172q-53 0 -84 -39l-193 -297v336h-105v-467z" />
    <glyph glyph-name="FL004Ch" unicode="L" horiz-adv-x="619" 
d="M579 92v-92h-400q-129 0 -129 132v336h107v-301q0 -75 78 -75h344z" />
    <glyph glyph-name="FL004Dh" unicode="M" horiz-adv-x="860" 
d="M715 367v-367h105v468h-168l-217 -284l-217 284h-168v-468h105v367l280 -365z" />
    <glyph glyph-name="FL004Eh" unicode="N" 
d="M539 0h106v355q-26 100 -138 113h-457v-468h105v367h289q90 -1 95 -75v-292z" />
    <glyph glyph-name="FL004Fh" unicode="O" horiz-adv-x="686" 
d="M509 468h-317q-128 -11 -141 -135h-1v-197q15 -126 142 -136h317q123 13 137 136v197h-1q-14 122 -136 135zM159 312q0 21 18 33.5t47 12.5h246q62 0 69 -46v-142q0 -60 -69 -60h-246q-65 0 -65 57v145z" />
    <glyph glyph-name="FL0050h" unicode="P" horiz-adv-x="688" 
d="M50 0v468h462q118 -25 136 -131v-99q-19 -57 -44 -86t-68 -41h-135v93h79q18 0 29.5 9t17.5 22t8.5 28.5t2.5 29.5q0 71 -88 71h-288v-364h-112z" />
    <glyph glyph-name="FL0051h" unicode="Q" horiz-adv-x="848" 
d="M808 0v68l-185 139l88 94v46q0 81 -91 121h-437q-67 -33 -96.5 -78.5t-36.5 -106.5v-146q17 -58 58.5 -93t127.5 -44h191l130 128l131 -88v-40h120zM603 327l-221 -235h-149q-45 0 -65 23t-25 66v100q8 46 42.5 71.5t103.5 30.5h248q30 0 48 -18.5t18 -37.5z" />
    <glyph glyph-name="FL0052h" unicode="R" horiz-adv-x="716" 
d="M50 0h111v364h289q88 0 88 -71q0 -13 -2.5 -28.5t-9 -28.5t-18 -22t-29.5 -9h-86v-94l127 -111h156l-140 111q43 12 68 41t44 86v99q-18 107 -136 132h-462v-469z" />
    <glyph glyph-name="FL0053h" unicode="S" horiz-adv-x="691" 
d="M500 189q44 0 46 -30v-27q-3 -31 -49 -31h-446v-100h535q8 0 18 5.5t19.5 13.5t17 18t10.5 18v170q0 11 -4 21.5t-11 19t-15 14t-17 5.5h-414q-34 0 -36 26v27q3 31 49 31h446v99h-531q-10 0 -21.5 -5t-22 -13t-17.5 -17t-7 -18v-175q0 -17 16 -32.5t36 -21.5z" />
    <glyph glyph-name="FL0054h" unicode="T" 
d="M287 0v361h-79q-57 0 -57 -53v-40h-101v90q17 91 95 110h401q89 -14 99 -110v-90h-102v46q0 23 -17 35t-47 12h-80v-361h-112z" />
    <glyph glyph-name="FL0055h" unicode="U" 
d="M50 468v-332q15 -126 142 -136h317q124 13 136 136v332h-106v-298q0 -60 -69 -60h-246q-66 0 -66 60v298h-108z" />
    <glyph glyph-name="FL0056h" unicode="V" horiz-adv-x="758" 
d="M316 0h130l100.5 133l86 114.5l60.5 83.5t24 41q3 32 -25 63t-78 34h-179v-102h97q24 -2 24 -21q0 -9 -5 -22l-166 -226l-203 372h-132z" />
    <glyph glyph-name="FL0057h" unicode="W" horiz-adv-x="860" 
d="M155 101l279 367l281 -367v367h105v-468h-168l-217 284l-217 -284h-168v468h105v-367z" />
    <glyph glyph-name="FL0058h" unicode="X" horiz-adv-x="670" 
d="M541 90h-88l-56 79l206 195v106h-120v-71l-143 -130l-143 130v71h-120v-106l203 -189l-53 -83h-88l-89 -92h197q26 0 44 13t34 33l27 41l11 -40l6 -7q14 -17 27 -28.5t37 -11.5h197z" />
    <glyph glyph-name="FL0059h" unicode="Y" horiz-adv-x="751" 
d="M287 360q-19 19 -52 19l-13 -1h-83l-89 90h225q50 0 91 -36l234 -256v292h111v-468h-414q-134 7 -156 105v78h102v-3q0 -74 72 -75h213z" />
    <glyph glyph-name="FL005Ah" unicode="Z" horiz-adv-x="692" 
d="M652 310l-150 -127v100l45 29v58h-496v99h601v-159zM50 158l150 127v-100l-45 -29v-58h496v-99h-601v159z" />
    <glyph glyph-name="FL005Bh" unicode="[" horiz-adv-x="350" 
d="M162 101v266h148v101h-260v-468h260v101h-148z" />
    <glyph glyph-name="FL005Ch" unicode="\" horiz-adv-x="633" 
d="M476 0l-427 468h119l424 -468h-116z" />
    <glyph glyph-name="FL005Dh" unicode="]" horiz-adv-x="350" 
d="M198 101v266h-148v101h260v-468h-260v101h148z" />
    <glyph glyph-name="FL005Eh" unicode="^" horiz-adv-x="758" 
d="M316 470h130l100.5 -133l86 -114.5l60.5 -83.5t24 -41q3 -32 -25 -63t-78 -34h-179v102h97q24 1 24 21q0 9 -5 22l-166 226l-203 -372h-132z" />
    <glyph glyph-name="FL005Fh" unicode="_" horiz-adv-x="435" 
d="M395 0v106h-345v-106h345z" />
    <glyph glyph-name="FL0060h" unicode="`" horiz-adv-x="282" 
d="M117 345l-67 125h125l67 -125h-125z" />
    <glyph glyph-name="a" unicode="a" horiz-adv-x="847" 
d="M785 43l-41 -43h-624l-45 43q-25 24 -25 49q0 21 16 43l256 333h208l260 -333q17 -23 17 -44q0 -26 -22 -48zM472 373h-96l-212 -272h529z" />
    <glyph glyph-name="d" unicode="b" 
d="M508 468h-458v-468h458q124 14 137 136v197h-1q-13 121 -136 135zM293 283v-103h245v-10q0 -60 -69 -60h-311v248h311q62 0 69 -46l-5 -30z" />
    <glyph glyph-name="c" unicode="c" horiz-adv-x="680" 
d="M640 100q-16 -88 -133 -100h-324q-119 14 -133 101v262q20 84 133 104h324q117 -21 133 -102v-68h-108q0 69 -61 69h-248q-65 0 -65 -51v-160q0 -55 63 -55h251q60 0 60 66h108v-66z" />
    <glyph glyph-name="FL0062h" unicode="d" 
d="M508 468h-458v-468h458q123 13 137 136v197h-1q-14 122 -136 135zM158 358h311q62 0 69 -46v-142q0 -60 -69 -60h-311v248z" />
    <glyph glyph-name="FL0065h" unicode="e" horiz-adv-x="623" 
d="M183 0q-119 14 -133 101v262q20 84 133 104h398v-101h-358q-64 0 -64 -49v-31h258v-106h-258l-1 -25q-2 -53 63 -53h362v-102h-400z" />
    <glyph glyph-name="FL0066h" unicode="f" horiz-adv-x="621" 
d="M159 0v126h256v103h-257v86q0 51 65 51h358v101h-398q-113 -20 -133 -104v-363h109z" />
    <glyph glyph-name="FL0067h" unicode="g" horiz-adv-x="623" 
d="M582 101v160h-109v-100q0 -60 -59 -60h-193q-63 0 -63 54v160q0 51 65 51h358v101h-398q-113 -20 -133 -104v-262q14 -87 133 -101h266q116 14 133 101z" />
    <glyph glyph-name="FL0068h" unicode="h" horiz-adv-x="620" 
d="M159 0v126h308v-126h113v468h-113v-239h-309v86q0 51 65 51l-40 101q-113 -20 -133 -104v-363h109z" />
    <glyph glyph-name="FL0069h" unicode="i" horiz-adv-x="205" 
d="M50 0v468h115v-468h-115z" />
    <glyph glyph-name="FL006Ah" unicode="j" horiz-adv-x="624" 
d="M50 101v66h108q0 -66 60 -66h193q63 0 63 54v315h110v-369q-17 -88 -135 -101h-266q-116 14 -133 101z" />
    <glyph glyph-name="FL006Ch" unicode="k" horiz-adv-x="670" 
d="M541 380l89 90h-197q-26 0 -44 -13t-34 -33l-199 -304v348h-105v-467l-1 -1h141l146 204l146 -133v-71h120v106l-203 189l53 83z" />
    <glyph glyph-name="l" unicode="l" horiz-adv-x="619" 
d="M579 92v-92h-400q-129 0 -129 132v336h107v-301q0 -75 78 -75h344z" />
    <glyph glyph-name="m" unicode="m" horiz-adv-x="860" 
d="M715 367v-367h105v468h-168l-217 -284l-217 284h-168v-468h105v367l280 -365z" />
    <glyph glyph-name="n" unicode="n" 
d="M539 0h106v355q-26 100 -138 113h-457v-468h105v367h289q90 -1 95 -75v-292z" />
    <glyph glyph-name="o" unicode="o" horiz-adv-x="686" 
d="M509 468h-317q-128 -11 -141 -135h-1v-197q15 -126 142 -136h317q123 13 137 136v197h-1q-14 122 -136 135zM159 312q0 21 18 33.5t47 12.5h246q62 0 69 -46v-142q0 -60 -69 -60h-246q-65 0 -65 57v145z" />
    <glyph glyph-name="FL0070h" unicode="p" horiz-adv-x="688" 
d="M50 0v468h462q118 -25 136 -131v-99q-19 -57 -44 -86t-68 -41h-135v93h79q18 0 29.5 9t17.5 22t8.5 28.5t2.5 29.5q0 71 -88 71h-288v-364h-112z" />
    <glyph glyph-name="FL0071h" unicode="q" horiz-adv-x="682" 
d="M120 0v77l82 110l-104 59q-47 26 -48 47v73q15 88 150 102h265q177 0 177 -124v-344h-109l-246 139l-68 -96v-43h-99zM174 312l359 -193v187q0 77 -123 77h-139q-97 0 -108 -29q-10 -28 11 -42z" />
    <glyph glyph-name="r" unicode="r" horiz-adv-x="716" 
d="M50 469h462q118 -25 136 -132v-99q-19 -57 -44 -86t-68 -41l140 -111h-146l-135 110v94h84q18 0 29.5 9t18 22.5t9 29t2.5 28.5q0 71 -88 71h-400v105z" />
    <glyph glyph-name="FL0073h" unicode="s" horiz-adv-x="691" 
d="M100 183h100v100q-44 0 -46 29v27q3 31 49 31h446v99h-531q-10 0 -21.5 -6.5t-22 -15.5t-17.5 -18t-7 -13v-175q0 -17 15 -34.5t35 -23.5zM500 189q44 0 46 -30v-27q-3 -31 -49 -31h-446v-100h535q8 0 18 5.5t19.5 13.5t17 18t10.5 18v170q0 7 -5.5 17.5t-14 20t-17 16
t-14.5 6.5h-100v-97z" />
    <glyph glyph-name="t" unicode="t" 
d="M287 0v361h-79q-57 0 -57 -53v-40h-101v90q17 91 95 110h401q89 -14 99 -110v-90h-102v46q0 23 -17 35t-47 12h-80v-361h-112z" />
    <glyph glyph-name="u" unicode="u" 
d="M50 468v-332q15 -126 142 -136h317q124 13 136 136v332h-106v-298q0 -60 -69 -60h-246q-66 0 -66 60v298h-108z" />
    <glyph glyph-name="v" unicode="v" horiz-adv-x="758" 
d="M452 0h-130l-101.5 132.5l-86 114.5l-60 84t-23.5 41q-3 32 25 63t78 34h179v-102h-97q-24 -2 -24 -21q0 -9 5 -22l166 -226l203 372h132z" />
    <glyph glyph-name="FL0077h" unicode="w" horiz-adv-x="860" 
d="M155 101l279 367l281 -367v367h105v-468h-168l-217 284l-217 -284h-168v468h105v-367z" />
    <glyph glyph-name="FL0078h" unicode="x" horiz-adv-x="670" 
d="M139 380h88l53 -84l-203 -190v-106h120v71l143 130l143 -130v-71h120v106l-203 189l53 83h88l89 92h-197q-26 0 -44 -13t-34 -33l-27 -41l-3 41q-16 20 -34 33t-44 13h-197z" />
    <glyph glyph-name="y" unicode="y" horiz-adv-x="662" 
d="M198 360q-19 19 -52 19l-13 -1h-83v90h136q50 0 91 -36l234 -256v292h111v-468h-570v104h387z" />
    <glyph glyph-name="FL007Ah" unicode="z" horiz-adv-x="692" 
d="M652 310l-150 -127v100l45 29v58h-496v99h601v-159zM50 158l150 127v-100l-45 -29v-58h496v-99h-601v159z" />
    <glyph glyph-name="FL007Bh" unicode="{" horiz-adv-x="448" 
d="M406 468v-106l-200 -188l64 -91q26 -50 138 -83h-172q-53 0 -84 39l-102 149l236 209v71h120z" />
    <glyph glyph-name="FL007Ch" unicode="|" horiz-adv-x="205" 
d="M51 -88v651h115v-651h-115z" />
    <glyph glyph-name="FL007Dh" unicode="}" horiz-adv-x="448" 
d="M52 468v-106l200 -188l-64 -91q-26 -50 -138 -83h172q52 0 84 39l102 149l-236 209v71h-120z" />
    <glyph glyph-name="FL007Eh" unicode="~" horiz-adv-x="495" 
d="M260 296l42 -60l45 60h108l-101 -126h-109l-42 60l-45 -60h-108l101 126h109z" />
    <glyph glyph-name="FL007Fh" horiz-adv-x="297" 
 />
    <glyph glyph-name="FL20ACh" unicode="&#x20ac;" horiz-adv-x="766" 
d="M424 141h-179q8 -41 62 -41h251q60 0 60 66h108v-66q-16 -88 -133 -100h-324q-119 14 -133 101v40h-86v76h86v21h-86v76h86v49q20 84 133 104h324q117 -21 133 -102v-68h-108q0 69 -61 69h-248q-65 0 -65 -51v-1h180v-76h-180v-21h180v-76z" />
    <glyph glyph-name="FL201Ah" unicode="&#x201a;" horiz-adv-x="215" 
d="M175 0v125h-125v-266z" />
    <glyph glyph-name="FL0192h" unicode="&#x192;" horiz-adv-x="716" 
d="M564 204h-239v2h-78q-18 0 -29.5 9t-18 22t-9 28.5t-2.5 28.5q0 71 88 71h400v105h-462q-118 -25 -136 -132v-99q19 -57 44 -86t68 -41l-140 -111h133l124 97h257v106z" />
    <glyph glyph-name="FL201Eh" unicode="&#x201e;" horiz-adv-x="390" 
d="M350 0v125h-125v-266zM175 0v125h-125v-266z" />
    <glyph glyph-name="FL2026h" unicode="&#x2026;" horiz-adv-x="565" 
d="M525 0v125h-125v-125h125zM175 0v125h-125v-125h125zM350 0v125h-125v-125h125z" />
    <glyph glyph-name="FL2020h" unicode="&#x2020;" horiz-adv-x="435" 
d="M277 258v-258h-115v258h-112v106h112v104h115v-104h118v-106h-118z" />
    <glyph glyph-name="FL2021h" unicode="&#x2021;" horiz-adv-x="435" 
d="M395 78h-118v-78h-115v78h-112v106h112v74h-112v106h112v104h115v-104h118v-106h-118v-74h118v-106z" />
    <glyph glyph-name="FL02C6h" unicode="&#x2c6;" horiz-adv-x="395" 
d="M245 343l-42 60l-45 -60h-108l102 126h102l101 -126h-110z" />
    <glyph glyph-name="FL2030h" unicode="&#x2030;" horiz-adv-x="1369" 
d="M341 0l427 468h-119l-424 -468h116zM325 469h-190q-77 -6 -84 -81h-1v-118q9 -76 85 -82h190q74 7 83 82v118h-1q-8 72 -82 81zM115 375q4 28 39 28h148q37 0 41 -28v-85q0 -36 -41 -36h-148q-39 0 -39 34v87zM852 281h-190q-77 -6 -84 -81h-1v-118q9 -76 85 -82h190
q74 7 83 82v118h-1q-8 72 -82 81zM642 187q4 28 39 28h148q37 0 41 -28v-85q0 -36 -41 -36h-148q-39 0 -39 34v87zM1246 281h-190q-77 -6 -84 -81h-1v-118q9 -76 85 -82h190q74 7 83 82v118h-1q-8 72 -82 81zM1036 187q4 28 39 28h148q37 0 41 -28v-85q0 -36 -41 -36h-148
q-39 0 -39 34v87z" />
    <glyph glyph-name="FL0160h" unicode="&#x160;" horiz-adv-x="691" 
d="M500 189l-399 -1q-51 0 -51 58v168q7 55 65 55h534v-99h-446q-46 0 -49 -31v-27q2 -29 46 -29h401q24 0 37 -13.5t13 -43.5v-170q-7 -55 -65 -55h-535v100h446q46 0 49 31v27q-2 30 -46 30zM319 630l42 -60l45 60h108l-102 -126h-102l-101 126h110z" />
    <glyph glyph-name="FL2039h" unicode="&#x2039;" horiz-adv-x="216" 
d="M176 191l-60 42l60 45v108l-126 -102v-102l126 -101v110z" />
    <glyph glyph-name="FL0152h" unicode="&#x152;" horiz-adv-x="1156" 
d="M716 0q-72 7 -105 42q-35 -35 -104 -42h-324q-119 14 -133 101v262q20 84 133 104h324q72 -13 105 -49q35 37 104 49h398v-101h-358q-64 0 -64 -49v-31h258v-106h-258l-1 -25q-2 -53 63 -53h362v-102h-400zM472 100q60 0 60 66h51v131h-51q0 69 -61 69h-248
q-65 0 -65 -51v-160q0 -55 63 -55h251z" />
    <glyph glyph-name="FL017Dh" unicode="&#x17d;" horiz-adv-x="692" 
d="M652 310l-150 -127v100l45 29v58h-496v99h601v-159zM50 158l150 127v-100l-45 -29v-58h496v-99h-601v159zM302 631l42 -60l45 60h108l-102 -126h-102l-101 126h110z" />
    <glyph glyph-name="FL2018h" unicode="&#x2018;" horiz-adv-x="217" 
d="M177 283v187h-127v-187h127z" />
    <glyph glyph-name="FL2019h" unicode="&#x2019;" horiz-adv-x="217" 
d="M177 283v187h-127v-187h127z" />
    <glyph glyph-name="FL201Ch" unicode="&#x201c;" horiz-adv-x="394" 
d="M354 283v187h-127v-187h127zM177 282v187h-127v-187h127z" />
    <glyph glyph-name="FL201Dh" unicode="&#x201d;" horiz-adv-x="394" 
d="M354 283v187h-127v-187h127zM177 282v187h-127v-187h127z" />
    <glyph glyph-name="FL2022h" unicode="&#x2022;" horiz-adv-x="470" 
d="M50 312q7 46 65 46h246q62 0 69 -46v-142q0 -60 -69 -60h-246q-65 0 -65 57v145z" />
    <glyph glyph-name="FL2013h" unicode="&#x2013;" horiz-adv-x="348" 
d="M308 180v106h-258v-106h258z" />
    <glyph glyph-name="FL2014h" unicode="&#x2014;" horiz-adv-x="435" 
d="M395 180v106h-345v-106h345z" />
    <glyph glyph-name="FL02DCh" unicode="&#x2dc;" horiz-adv-x="495" 
d="M260 471l42 -60l45 60h108l-101 -126h-109l-42 60l-45 -60h-108l101 126h109z" />
    <glyph glyph-name="FL2122h" unicode="&#x2122;" horiz-adv-x="963" 
d="M259 191v217h48q18 0 28.5 -7.5t10.5 -21.5v-27h61v54q-6 57 -59 66h-241q-46 -12 -57 -66v-54h61v24q0 32 34 32h48v-217h66zM860 411v-220h63v281h-101l-130 -171l-130 171h-101v-281h63v220l168 -219z" />
    <glyph glyph-name="FL0161h" unicode="&#x161;" horiz-adv-x="691" 
d="M500 286h100q24 0 37.5 -15t13.5 -45v-170q-7 -55 -65 -55h-535v100h446q46 0 49 31v27q-2 30 -46 30v97zM100 183q-50 0 -50 58v173q7 55 65 55h534v-99h-446q-46 0 -49 -31v-27q2 -29 46 -29v-100h-100zM324 629l42 -60l45 60h108l-102 -126h-102l-101 126h110z" />
    <glyph glyph-name="FL203Ah" unicode="&#x203a;" horiz-adv-x="216" 
d="M50 191l60 42l-60 45v108l126 -102v-102l-126 -101v110z" />
    <glyph glyph-name="FL0153h" unicode="&#x153;" horiz-adv-x="1156" 
d="M716 0q-72 7 -105 42q-35 -35 -104 -42h-324q-119 14 -133 101v262q20 84 133 104h324q72 -13 105 -49q35 37 104 49h398v-101h-358q-64 0 -64 -49v-31h258v-106h-258l-1 -25q-2 -53 63 -53h362v-102h-400zM472 100q60 0 60 66h51v131h-51q0 69 -61 69h-248
q-65 0 -65 -51v-160q0 -55 63 -55h251z" />
    <glyph glyph-name="FL017Eh" unicode="&#x17e;" horiz-adv-x="692" 
d="M652 310l-150 -127v100l45 29v58h-496v99h601v-159zM50 158l150 127v-100l-45 -29v-58h496v-99h-601v159zM302 631l42 -60l45 60h108l-102 -126h-102l-101 126h110z" />
    <glyph glyph-name="FL0178h" unicode="&#x178;" horiz-adv-x="751" 
d="M528 104h-387v-104h570v468h-111v-292l-234 256q-41 36 -91 36h-225l89 -90h83l13 1q33 0 52 -19zM409 515v125h-125v-125h125zM603 515v125h-125v-125h125z" />
    <glyph glyph-name="FL00A1h" unicode="&#xa1;" horiz-adv-x="277" 
d="M174 260v-182q0 -50 62 -79h-131q-56 0 -56 62v199h125zM172 470v-125h-125v125h125z" />
    <glyph glyph-name="FL00A2h" unicode="&#xa2;" horiz-adv-x="680" 
d="M285 -91v91h-102q-119 14 -133 101v262q20 84 133 104h103v93h114v-93h107q117 -21 133 -102v-68h-108q0 69 -61 69h-71v-266h72q60 0 60 66h108v-66q-16 -88 -133 -100h-107v-91h-115zM158 155q0 -55 63 -55h64v266h-62q-65 0 -65 -51v-160z" />
    <glyph glyph-name="FL00A3h" unicode="&#xa3;" horiz-adv-x="716" 
d="M564 265h-239v-2h-78q-18 0 -29.5 -9t-18 -22t-9 -28.5t-2.5 -28.5q0 -71 88 -71h400v-105h-462q-118 25 -136 132v99q19 57 44 86t68 41l-140 111h133l124 -97h257v-106z" />
    <glyph glyph-name="FL00A4h" unicode="&#xa4;" horiz-adv-x="670" 
d="M148 278v-106l-71 -66v-106h120v71l6 5h256h8q4 0 9 1l7 -6v-71h120v106l-75 70v102q-7 46 -69 46h-41l35 54h88l89 92h-197q-26 0 -44 -13t-34 -33l-27 -41l-3 41q-16 20 -34 33t-44 13h-197l89 -90h88l35 -56h-49q-58 0 -65 -46zM216 243q4 20 42 20h155q40 0 44 -20
v-64q0 -26 -44 -26h-155q-42 0 -42 25v65z" />
    <glyph glyph-name="FL00A5h" unicode="&#xa5;" horiz-adv-x="912" 
d="M872 77v106h-161v74h161v106h-161v105h-111v-292l-234 256q-41 36 -91 36h-225l89 -90h83l13 1q33 0 52 -19l241 -256h-387v-104h570v77h161z" />
    <glyph glyph-name="FL00A6h" unicode="&#xa6;" horiz-adv-x="205" 
d="M51 -88v651h115v-651h-115z" />
    <glyph glyph-name="FL00A7h" unicode="&#xa7;" horiz-adv-x="694" 
d="M50 139l19.5 -28.5t13.5 -15.5t10 -6t8 -1h402q46 0 46 -30v-27q-3 -31 -49 -31h-404v-100h493q58 0 65 55v363q-8 22 -15 34t-14 17.5t-12.5 6.5t-10.5 1h-402q-44 0 -46 29v27q3 31 49 31h399v101h-487q-57 0 -65 -57v-369zM541 269q5 -8 5 -16v-27q-3 -31 -49 -31
h-334q-6 6 -6 16v27q3 31 49 31h335z" />
    <glyph glyph-name="FL00A8h" unicode="&#xa8;" horiz-adv-x="409" 
d="M175 346v125h-125v-125h125zM369 346v125h-125v-125h125z" />
    <glyph glyph-name="FL00A9h" unicode="&#xa9;" horiz-adv-x="1221" 
d="M1181 262q0 18 -98 48q53 6 53 38v4q0 3 -1 4l-150 33q31 6 31 38l-16 14h-179l7 39l-52 5l-150 -25l-7 6l7 19l-29 20l-135 -58l-68 38q-34 -10 -89 -76l-83 25h-5q-34 0 -34 -91l-88 6l-8 -39l45 -45l-82 -12l7 -33l84 -33l-46 -33q0 -25 22 -25l120 -19l-24 -20v-26
l195 -13l-7 -32l23 -12l187 25v-39l22 -7l143 65l45 -39l37 7l75 71q24 -13 43 -20t33 -7q20 0 29 15l8 76l74 -12q24 4 24 27v6q0 6 -1 6l-45 51h67l14 27q2 2 2 3zM1158 253l-97 -7q61 -60 61 -79q0 -4 -2 -6l-97 14l-7 -92l-98 27l-74 -78l-68 38l-150 -63l7 25l-22 26
l-187 -33l22 45l-209 8l60 37l-180 34l82 32l-127 58l97 7l-52 58l-7 27l97 -7l15 91q47 -29 73 -29q6 0 17 3l82 77l59 -39l136 58l15 -5l7 -39l195 25l-15 -45h202l-60 -39l172 -33l8 -12h-8l-75 -20l120 -52zM1011 298l-32 6l-5 -87l22 -3zM999 178l-20 8l-17 -12l16 -14
zM943 185v113l-23 6l-5 -79l-75 73l3 -114l19 2v55q48 -56 81 -56zM818 186l-2 85q-9 36 -35 36q-8 0 -17 -3q-48 -57 -54 -114h27q16 27 34 27q16 0 30 -27zM694 304l-25 -4l-13 -116l31 8zM631 181v112l-23 7l-4 -80l-77 73l3 -115l20 3v56q47 -56 81 -56zM512 261
q-12 38 -54 38h-8q1 0 -0.5 -0.5t-5.5 -0.5q-50 -27 -50 -99q8 -20 45 -20q5 0 10.5 0.5t11.5 1.5q39 0 51 80zM384 302q-96 -14 -96 -66v-7q0 -5 1 -8q12 -51 51 -51q5 0 27 5l-1 20q-15 -3 -26 -3q-28 0 -28 22q0 27 20 47q19 16 35 16q4 0 7.5 -0.5t7.5 -2.5zM274 300
l-25 -5l-12 -117l30 9zM793 241h-43l27 39zM488 244q0 -17 -12 -33q-20 -10 -35 -10q-22 0 -22 28q0 7 1 8q16 36 39 36q15 0 24 -15q5 -5 5 -14z" />
    <glyph glyph-name="FL00AAh" unicode="&#xaa;" horiz-adv-x="544" 
d="M491 215q13 13 13 29q0 15 -10 26l-156 200h-125l-153 -200q-10 -13 -10 -26q0 -16 15 -29l27 -26h374zM301 413l135 -163h-318l128 163h55z" />
    <glyph glyph-name="FL00ABh" unicode="&#xab;" horiz-adv-x="385" 
d="M345 191l-60 42l60 45v108l-126 -102v-102l126 -101v110zM176 191l-60 42l60 45v108l-126 -102v-102l126 -101v110z" />
    <glyph glyph-name="FL00ACh" unicode="&#xac;" horiz-adv-x="435" 
d="M396 63v223h-346v-106h221v-117h125z" />
    <glyph glyph-name="FL00ADh" unicode="&#xad;" horiz-adv-x="308" 
d="M268 180v105h-218v-105h218z" />
    <glyph glyph-name="FL00AEh" unicode="&#xae;" horiz-adv-x="1122" 
d="M1082 345l-42 11l-7 -145l27 -4zM1066 148l-26 13l-25 -18l22 -23zM991 159v186l-29 11l-7 -129l-102 118l4 -188l26 4v92q64 -94 108 -94zM823 161l-2 141q-11 60 -45 60q-12 0 -22 -7q-67 -91 -73 -186h36q22 42 44 42t42 -42zM660 356l-33 -6l-18 -193l42 13zM576 153
v186l-32 11l-5 -131l-103 119l4 -190l28 5v92q62 -92 108 -92zM417 284q-15 65 -73 65h-8q-3 0 -10 -4q-66 -42 -66 -162q10 -33 60 -33q7 0 13.5 1t15.5 2q51 0 68 131zM247 353q-129 -21 -129 -109q0 -7 0.5 -11.5l1.5 -13.5q15 -83 68 -83q9 0 17 1t18 7l-1 32
q-7 -4 -34 -4q-38 0 -38 37q0 40 27 75q21 27 46 27q12 0 19 -4zM99 350l-32 -8l-17 -194l41 16zM792 253h-57l35 62zM385 257q0 -13 -3 -26.5t-12 -26.5q-31 -19 -48 -19q-28 0 -28 47v13q23 59 53 59q19 0 33 -24q5 -8 5 -23z" />
    <glyph glyph-name="FL00AFh" unicode="&#xaf;" horiz-adv-x="435" 
d="M395 363v106h-345v-106h345z" />
    <glyph glyph-name="FL00B0h" unicode="&#xb0;" horiz-adv-x="215" 
d="M175 346v125h-125v-125h125z" />
    <glyph glyph-name="FL00B1h" unicode="&#xb1;" horiz-adv-x="435" 
d="M283 166v80h120v106h-120v89h-106v-89h-119v-106h119v-80h106zM401 0v106h-342v-106h342z" />
    <glyph glyph-name="FL00B2h" unicode="&#xb2;" horiz-adv-x="451" 
d="M141 303h239q31 0 31 35v100q-4 33 -39 33h-320v-59h267q27 0 30 -19v-16q-2 -17 -28 -17h-241q-30 0 -30 -34v-102q4 -33 39 -33h321v60h-267q-27 0 -30 18v16q1 18 28 18z" />
    <glyph glyph-name="FL00B3h" unicode="&#xb3;" horiz-adv-x="410" 
d="M290 189q72 8 80 61v157q-12 50 -80 62h-238v-60h214q39 0 39 -30v-18h-155v-64h155v-15q2 -32 -37 -32h-218v-61h240z" />
    <glyph glyph-name="FL00B4h" unicode="&#xb4;" horiz-adv-x="282" 
d="M175 345l67 125h-125l-67 -125h125z" />
    <glyph glyph-name="FL00B5h" unicode="&#xb5;" horiz-adv-x="751" 
d="M473 360q19 19 52 19l13 -1h83l89 90h-225q-51 0 -91 -36l-234 -256v292h-111v-468h414q133 7 156 105v78h-102v-3q0 -75 -72 -75h-213z" />
    <glyph glyph-name="FL00B6h" unicode="&#xb6;" horiz-adv-x="716" 
d="M676 469h-462q-118 -25 -136 -132v-99q19 -57 44 -86t68 -41l-140 -111h133l142 111v94h-78q-18 0 -29.5 9t-18 22t-9 28.5t-2.5 28.5q0 71 88 71h400v105z" />
    <glyph glyph-name="FL00B7h" unicode="&#xb7;" horiz-adv-x="215" 
d="M176 180v125h-125v-125h125z" />
    <glyph glyph-name="FL00B8h" unicode="&#xb8;" horiz-adv-x="170" 
d="M6 -72v-78h124v150h-72z" />
    <glyph glyph-name="FL00B9h" unicode="&#xb9;" horiz-adv-x="246" 
d="M139 189v220h-89v61h156v-281h-67z" />
    <glyph glyph-name="FL00BAh" unicode="&#xba;" horiz-adv-x="448" 
d="M325 470h-190q-77 -6 -84 -81h-1v-118q9 -76 85 -82h190q74 7 83 82v118h-1q-8 72 -82 81zM115 376q4 28 39 28h148q37 0 41 -28v-85q0 -36 -41 -36h-148q-39 0 -39 34v87z" />
    <glyph glyph-name="FL00BBh" unicode="&#xbb;" horiz-adv-x="385" 
d="M49 191l60 42l-60 45v108l126 -102v-102l-126 -101v110zM218 191l60 42l-60 45v108l126 -102v-102l-126 -101v110z" />
    <glyph glyph-name="FL00BCh" unicode="&#xbc;" horiz-adv-x="838" 
d="M206 188v281h-156v-61h89v-220h67zM189 0l427 468h-119l-424 -468h116zM480 218v-142h250v-76h68v281h-68v-144h-185v52q0 31 39 31l-24 60q-68 -12 -80 -62z" />
    <glyph glyph-name="FL00BDh" unicode="&#xbd;" horiz-adv-x="887" 
d="M206 188v281h-156v-61h89v-220h67zM189 0l427 468h-119l-424 -468h116zM577 112h239q31 0 31 35v100q-4 33 -39 33h-320v-59h267q27 0 30 -19v-16q-2 -17 -28 -17h-241q-30 0 -30 -34v-102q4 -33 39 -33h321v60h-267q-27 0 -30 18v16q1 18 28 18z" />
    <glyph glyph-name="FL00BEh" unicode="&#xbe;" horiz-adv-x="977" 
d="M328 0l427 468h-119l-424 -468h116zM619 218v-142h250v-76h68v281h-68v-144h-185v52q0 31 39 31l-24 60q-68 -12 -80 -62zM290 189q72 8 80 61v157q-12 50 -80 62h-238v-60h214q39 0 39 -30v-18h-155v-64h155v-15q2 -32 -37 -32h-218v-61h240z" />
    <glyph glyph-name="FL00BFh" unicode="&#xbf;" horiz-adv-x="691" 
d="M487 280h-386q-51 0 -51 -58v-168q7 -55 65 -55h534v99h-446q-46 0 -49 31v27q1 30 46 30h205q12 0 26.5 3t26.5 10t20.5 17.5t8.5 25.5v38zM360 468v-125h125v125h-125z" />
    <glyph glyph-name="FL00C0h" unicode="&#xc0;" horiz-adv-x="758" 
d="M718 0h-132l-203 372l-166 -226q-5 -13 -5 -22q0 -20 24 -21h97v-102h-179q-50 3 -78 34t-25 63q1 7 23.5 40.5t60 84.5l86 114.5l101.5 132.5h130zM328 506l-67 125h125l67 -125h-125z" />
    <glyph glyph-name="FL00C1h" unicode="&#xc1;" horiz-adv-x="758" 
d="M452 470h-130l-101.5 -132.5l-86 -114.5t-60 -84.5t-23.5 -40.5q-3 -32 25 -63t78 -34h179v102h-97q-24 1 -24 21q0 9 5 22l166 226l203 -372h132zM422 505l67 125h-125l-67 -125h125z" />
    <glyph glyph-name="FL00C2h" unicode="&#xc2;" horiz-adv-x="758" 
d="M718 0h-132l-203 372l-166 -226q-5 -13 -5 -22q0 -20 24 -21h97v-102h-179q-50 3 -78 34t-25 63q1 7 23.5 40.5t60 84.5l86 114.5l101.5 132.5h130zM430 508l-42 60l-45 -60h-108l102 126h102l101 -126h-110z" />
    <glyph glyph-name="FL00C3h" unicode="&#xc3;" horiz-adv-x="758" 
d="M718 0h-132l-203 372l-166 -226q-5 -13 -5 -22q0 -20 24 -21h97v-102h-179q-50 3 -78 34t-25 63q1 7 23.5 40.5t60 84.5l86 114.5l101.5 132.5h130zM406 636l42 -60l45 60h108l-101 -126h-109l-42 60l-45 -60h-108l101 126h109z" />
    <glyph glyph-name="FL00C4h" unicode="&#xc4;" horiz-adv-x="758" 
d="M452 470h-130l-101.5 -132.5l-86 -114.5t-60 -84.5t-23.5 -40.5q-3 -32 25 -63t78 -34h179v102h-97q-24 1 -24 21q0 9 5 22l166 226l203 -372h132zM355 517v125h-125v-125h125zM549 517v125h-125v-125h125z" />
    <glyph glyph-name="FL00C5h" unicode="&#xc5;" horiz-adv-x="758" 
d="M452 470h-130l-101.5 -132.5l-86 -114.5t-60 -84.5t-23.5 -40.5q-3 -32 25 -63t78 -34h179v102h-97q-24 1 -24 21q0 9 5 22l166 226l203 -372h132zM452 511v125h-125v-125h125z" />
    <glyph glyph-name="FL00C6h" unicode="&#xc6;" horiz-adv-x="1183" 
d="M316 469h130l87 -114.5l77 -102.5v111q20 84 133 104h398v-101h-358q-64 0 -64 -49v-31h258v-106h-258l-1 -25q-2 -53 63 -53h362v-102h-400q-41 4 -70 18q-26 -18 -59 -18h-179v102h97q24 1 24 21q0 9 -5 22l-166 226l-203 -372h-132z" />
    <glyph glyph-name="FL00C7h" unicode="&#xc7;" horiz-adv-x="680" 
d="M278 -72v-78h124v150h105q117 12 133 100v66h-108q0 -66 -60 -66h-251q-63 0 -63 55v160q0 51 65 51h248q61 0 61 -69h108v68q-16 81 -133 102h-324q-113 -20 -133 -104v-262q14 -87 133 -101h147z" />
    <glyph glyph-name="FL00C8h" unicode="&#xc8;" horiz-adv-x="680" 
d="M530 292q0 33 -14 53.5t-44 20.5h-251q-63 0 -63 -55v-160q0 -51 65 -51h284v-101h-324q-113 20 -133 104v262q14 87 133 101h324q117 -12 133 -100v-178h-348v104h238zM285 508l-67 125h125l67 -125h-125z" />
    <glyph glyph-name="FL00C9h" unicode="&#xc9;" horiz-adv-x="680" 
d="M530 292h-238v-104h348v178q-16 88 -133 100h-324q-119 -14 -133 -101v-262q20 -84 133 -104h324v101h-284q-65 0 -65 51v160q0 55 63 55h251q30 0 44 -20.5t14 -53.5zM411 508l67 125h-125l-67 -125h125z" />
    <glyph glyph-name="FL00CAh" unicode="&#xca;" horiz-adv-x="680" 
d="M530 292q0 33 -14 53.5t-44 20.5h-251q-63 0 -63 -55v-160q0 -51 65 -51h284v-101h-324q-113 20 -133 104v262q14 87 133 101h324q117 -12 133 -100v-178h-348v104h238zM388 505l-42 60l-45 -60h-108l102 126h102l101 -126h-110z" />
    <glyph glyph-name="FL00CBh" unicode="&#xcb;" horiz-adv-x="680" 
d="M530 292h-238v-104h348v178q-16 88 -133 100h-324q-119 -14 -133 -101v-262q20 -84 133 -104h324v101h-284q-65 0 -65 51v160q0 55 63 55h251q30 0 44 -20.5t14 -53.5zM316 516v125h-125v-125h125zM510 516v125h-125v-125h125z" />
    <glyph glyph-name="FL0188h" unicode="&#xcc;" horiz-adv-x="263" 
d="M114 0v315q0 51 -64 51l40 101q113 -20 133 -104v-363h-109zM97 509l-67 125h125l67 -125h-125z" />
    <glyph glyph-name="FL015Fh" unicode="&#xcd;" horiz-adv-x="263" 
d="M223 0v363q-20 84 -133 104l-40 -101q64 0 64 -51v-315h109zM168 511l67 125h-125l-67 -125h125z" />
    <glyph glyph-name="FL00CEh" unicode="&#xce;" horiz-adv-x="263" 
d="M114 0v315q0 51 -64 51l40 101q113 -20 133 -104v-363h-109zM184 504l-42 60l-45 -60h-108l102 126h102l101 -126h-110z" />
    <glyph glyph-name="FL00CFh" unicode="&#xcf;" horiz-adv-x="263" 
d="M223 0v363q-20 84 -133 104l-40 -101q64 0 64 -51v-315h109zM111 510v125h-125v-125h125zM305 510v125h-125v-125h125z" />
    <glyph glyph-name="FL00D0h" unicode="&#xd0;" horiz-adv-x="802" 
d="M625 468q122 -13 136 -135h1v-197q-14 -123 -137 -136h-458v182h-117v106h117v180h458zM395 182h-120v-72h311q69 0 69 60v142q-7 46 -69 46h-311v-70h120v-106z" />
    <glyph glyph-name="FL00D1h" unicode="&#xd1;" 
d="M645 0h-106v292q-5 74 -95 75h-289v-367h-105v468h457q112 -13 138 -113v-355zM360 634l42 -60l45 60h108l-101 -126h-109l-42 60l-45 -60h-108l101 126h109z" />
    <glyph glyph-name="FL00D2h" unicode="&#xd2;" horiz-adv-x="686" 
d="M187 468h317q127 -11 141 -135h1v-197q-15 -126 -142 -136h-317q-123 13 -137 136v197h1q14 122 136 135zM537 312q-7 46 -65 46h-246q-62 0 -69 -46v-142q0 -60 69 -60h246q65 0 65 57v145zM285 508l-67 125h125l67 -125h-125z" />
    <glyph glyph-name="FL00D3h" unicode="&#xd3;" horiz-adv-x="686" 
d="M509 468h-317q-128 -11 -141 -135h-1v-197q15 -126 142 -136h317q123 13 137 136v197h-1q-14 122 -136 135zM159 312q7 46 65 46h246q62 0 69 -46v-142q0 -60 -69 -60h-246q-65 0 -65 57v145zM411 508l67 125h-125l-67 -125h125z" />
    <glyph glyph-name="FL00D4h" unicode="&#xd4;" horiz-adv-x="686" 
d="M159 312v-145q0 -57 65 -57h246q69 0 69 60v142q-7 46 -69 46h-246q-58 0 -65 -46zM192 468h317q122 -13 136 -135h1v-197q-14 -123 -137 -136h-317q-127 10 -142 136v197h1q13 124 141 135zM388 505l-42 60l-45 -60h-108l102 126h102l101 -126h-110z" />
    <glyph glyph-name="FL00D5h" unicode="&#xd5;" horiz-adv-x="686" 
d="M192 468h317q122 -13 136 -135h1v-197q-14 -123 -137 -136h-317q-127 10 -142 136v197h1q13 124 141 135zM159 312v-145q0 -57 65 -57h246q69 0 69 60v142q-7 46 -69 46h-246q-58 0 -65 -46zM360 634l42 -60l45 60h108l-101 -126h-109l-42 60l-45 -60h-108l101 126h109z
" />
    <glyph glyph-name="FL00D6h" unicode="&#xd6;" horiz-adv-x="686" 
d="M509 468h-317q-128 -11 -141 -135h-1v-197q15 -126 142 -136h317q123 13 137 136v197h-1q-14 122 -136 135zM159 312q7 46 65 46h246q62 0 69 -46v-142q0 -60 -69 -60h-246q-65 0 -65 57v145zM316 516v125h-125v-125h125zM510 516v125h-125v-125h125z" />
    <glyph glyph-name="FL00D7h" unicode="&#xd7;" horiz-adv-x="670" 
d="M137 305h88l48 -78l-19 -30l-177 -91v-106h120v71l141 55l145 -55v-71h120v106l-205 114l53 83h88l89 92h-197q-26 0 -44 -13t-34 -33l-27 -41l-3 41q-16 20 -34 33t-44 13h-197z" />
    <glyph glyph-name="FL00D8h" unicode="&#xd8;" horiz-adv-x="686" 
d="M51 333h-1v-197q7 -72 54 -107l-27 -29h432q123 13 137 136v197h-1q-7 70 -53 105l28 30h-428q-128 -11 -141 -135zM539 312v-142q0 -60 -69 -60h-177l219 240q23 -12 27 -38zM159 312q7 46 65 46h177l-217 -240q-25 13 -25 49v145z" />
    <glyph glyph-name="FL00D9h" unicode="&#xd9;" 
d="M644 468v-332q-15 -126 -142 -136h-317q-124 13 -136 136v332h106v-298q0 -60 69 -60h246q66 0 66 60v298h108zM283 508l-67 125h125l67 -125h-125z" />
    <glyph glyph-name="FL00DAh" unicode="&#xda;" 
d="M50 468v-332q15 -126 142 -136h317q124 13 136 136v332h-106v-298q0 -60 -69 -60h-246q-66 0 -66 60v298h-108zM411 508l67 125h-125l-67 -125h125z" />
    <glyph glyph-name="FL00DBh" unicode="&#xdb;" 
d="M50 468v-332q15 -126 142 -136h317q124 13 136 136v332h-106v-298q0 -60 -69 -60h-246q-66 0 -66 60v298h-108zM398 503l-42 60l-45 -60h-108l102 126h102l101 -126h-110z" />
    <glyph glyph-name="FL00DCh" unicode="&#xdc;" 
d="M50 468v-332q15 -126 142 -136h317q124 13 136 136v332h-106v-298q0 -60 -69 -60h-246q-66 0 -66 60v298h-108zM316 516v125h-125v-125h125zM510 516v125h-125v-125h125z" />
    <glyph glyph-name="FL00DDh" unicode="&#xdd;" horiz-adv-x="751" 
d="M528 104h-387v-104h570v468h-111v-292l-234 256q-41 36 -91 36h-225l89 -90h83l13 1q33 0 52 -19zM508 505l67 125h-125l-67 -125h125z" />
    <glyph glyph-name="FL00DEh" unicode="&#xde;" horiz-adv-x="688" 
d="M50 0h115v298h284q88 0 88 -71q0 -14 -2 -27t-8 -23.5t-17 -17t-29 -6.5h-79v-93h135q43 12 68 41t44 86v84q-21 106 -138 131h-347v66h-114v-468z" />
    <glyph glyph-name="FL00DFh" unicode="&#xdf;" horiz-adv-x="623" 
d="M51 -88h114v454h244q64 0 64 -49v-31h-191v-106h191q1 -16 1 -21v-6q0 -51 -63 -51h-129v-102h167q119 14 133 101v262q-20 84 -133 104h-398v-555z" />
    <glyph glyph-name="FL00E0h" unicode="&#xe0;" horiz-adv-x="847" 
d="M71 43q-22 22 -22 48q0 22 17 44l260 333h208l256 -333q16 -22 16 -43q0 -25 -25 -49l-45 -43h-624zM387 373l-224 -272h529l-212 272h-93zM400 508l-67 125h125l67 -125h-125z" />
    <glyph glyph-name="FL00E1h" unicode="&#xe1;" horiz-adv-x="847" 
d="M785 43q22 22 22 48q0 22 -17 44l-260 333h-208l-256 -333q-16 -22 -16 -43q0 -25 25 -49l45 -43h624zM469 373l224 -272h-529l212 272h93zM456 508l67 125h-125l-67 -125h125z" />
    <glyph glyph-name="FL00E2h" unicode="&#xe2;" horiz-adv-x="847" 
d="M785 43l-41 -43h-624l-45 43q-25 24 -25 49q0 21 16 43l256 333h208l260 -333q17 -22 17 -44q0 -26 -22 -48zM693 101l-224 272h-93l-212 -272h529zM472 505l-42 60l-45 -60h-108l102 126h102l101 -126h-110z" />
    <glyph glyph-name="FL00E3h" unicode="&#xe3;" horiz-adv-x="847" 
d="M376 373l-212 -272h529l-224 272h-93zM744 0h-624l-45 43q-25 24 -25 49q0 21 16 43l256 333h208l260 -333q17 -22 17 -44q0 -26 -22 -48zM446 634l42 -60l45 60h108l-101 -126h-109l-42 60l-45 -60h-108l101 126h109z" />
    <glyph glyph-name="FL00E4h" unicode="&#xe4;" horiz-adv-x="847" 
d="M785 43q22 22 22 48q0 22 -17 44l-260 333h-208l-256 -333q-16 -22 -16 -43q0 -25 25 -49l45 -43h624zM469 373l224 -272h-529l212 272h93zM386 513v125h-125v-125h125zM580 513v125h-125v-125h125z" />
    <glyph glyph-name="FL00E5h" unicode="&#xe5;" horiz-adv-x="847" 
d="M785 43q22 22 22 48q0 22 -17 44l-260 333h-208l-256 -333q-16 -22 -16 -43q0 -25 25 -49l45 -43h624zM469 373l224 -272h-529l212 272h93zM484 509v125h-125v-125h125z" />
    <glyph glyph-name="FL00E6h" unicode="&#xe6;" horiz-adv-x="1183" 
d="M316 469h130l87 -114.5l77 -102.5v111q20 84 133 104h398v-101h-358q-64 0 -64 -49v-31h258v-106h-258l-1 -25q-2 -53 63 -53h362v-102h-400q-41 4 -70 18q-26 -18 -59 -18h-179v102h97q24 1 24 21q0 9 -5 22l-166 226l-203 -372h-132z" />
    <glyph glyph-name="FL00E7h" unicode="&#xe7;" horiz-adv-x="680" 
d="M278 -72v-78h124v150h105q117 12 133 100v66h-108q0 -66 -60 -66h-251q-63 0 -63 55v160q0 51 65 51h248q61 0 61 -69h108v68q-16 81 -133 102h-324q-113 -20 -133 -104v-262q14 -87 133 -101h147z" />
    <glyph glyph-name="FL00E8h" unicode="&#xe8;" horiz-adv-x="623" 
d="M183 0q-119 14 -133 101v262q20 84 133 104h398v-101h-358q-64 0 -64 -49v-31h258v-106h-258l-1 -25q-2 -53 63 -53h362v-102h-400zM285 508l-67 125h125l67 -125h-125z" />
    <glyph glyph-name="FL00E9h" unicode="&#xe9;" horiz-adv-x="623" 
d="M583 0v102h-362q-63 0 -63 49v2l1 27h258v106h-258v31q0 49 64 49h358v101h-398q-113 -20 -133 -104v-262q14 -87 133 -101h400zM379 506l67 125h-125l-67 -125h125z" />
    <glyph glyph-name="FL00EAh" unicode="&#xea;" horiz-adv-x="623" 
d="M183 0q-119 14 -133 101v262q20 84 133 104h398v-101h-358q-64 0 -64 -49v-31h258v-106h-258l-1 -25q-2 -53 63 -53h362v-102h-400zM383 505l-42 60l-45 -60h-108l102 126h102l101 -126h-110z" />
    <glyph glyph-name="FL00EBh" unicode="&#xeb;" horiz-adv-x="623" 
d="M583 0v102h-362q-65 0 -63 53l1 25h258v106h-258v31q0 49 64 49h358v101h-398q-113 -20 -133 -104v-262q14 -87 133 -101h400zM296 516v125h-125v-125h125zM490 516v125h-125v-125h125z" />
    <glyph glyph-name="FL00CCh" unicode="&#xec;" horiz-adv-x="205" 
d="M63 0v468h115v-468h-115zM85 509l-67 125h125l67 -125h-125z" />
    <glyph glyph-name="FL00CDh" unicode="&#xed;" horiz-adv-x="205" 
d="M165 0v468h-115v-468h115zM143 509l67 125h-125l-67 -125h125z" />
    <glyph glyph-name="FL00EEh" unicode="&#xee;" horiz-adv-x="205" 
d="M50 0v468h115v-468h-115zM152 504l-42 60l-45 -60h-108l102 126h102l101 -126h-110z" />
    <glyph glyph-name="FL00EFh" unicode="&#xef;" horiz-adv-x="205" 
d="M165 0v468h-115v-468h115zM77 511v125h-125v-125h125zM271 511v125h-125v-125h125z" />
    <glyph glyph-name="FL00F0h" unicode="&#xf0;" horiz-adv-x="680" 
d="M160 174h238v104h-348v-178q16 -88 133 -100h324q119 14 133 101v262q-20 84 -133 104h-324v-101h284q65 0 65 -51v-160q0 -55 -63 -55h-251q-30 0 -44 20.5t-14 53.5z" />
    <glyph glyph-name="FL00F1h" unicode="&#xf1;" 
d="M645 0h-106v292q-5 74 -95 75h-289v-367h-105v468h457q112 -13 138 -113v-355zM360 634l42 -60l45 60h108l-101 -126h-109l-42 60l-45 -60h-108l101 126h109z" />
    <glyph glyph-name="FL00F2h" unicode="&#xf2;" horiz-adv-x="686" 
d="M187 468h317q127 -11 141 -135h1v-197q-15 -126 -142 -136h-317q-123 13 -137 136v197h1q14 122 136 135zM537 312q-7 46 -65 46h-246q-62 0 -69 -46v-142q0 -60 69 -60h246q65 0 65 57v145zM285 508l-67 125h125l67 -125h-125z" />
    <glyph glyph-name="FL00F3h" unicode="&#xf3;" horiz-adv-x="686" 
d="M509 468h-317q-128 -11 -141 -135h-1v-197q15 -126 142 -136h317q123 13 137 136v197h-1q-14 122 -136 135zM159 312q7 46 65 46h246q62 0 69 -46v-142q0 -60 -69 -60h-246q-65 0 -65 57v145zM411 508l67 125h-125l-67 -125h125z" />
    <glyph glyph-name="FL00F4h" unicode="&#xf4;" horiz-adv-x="686" 
d="M159 312v-145q0 -57 65 -57h246q69 0 69 60v142q-7 46 -69 46h-246q-58 0 -65 -46zM192 468h317q122 -13 136 -135h1v-197q-14 -123 -137 -136h-317q-127 10 -142 136v197h1q13 124 141 135zM388 505l-42 60l-45 -60h-108l102 126h102l101 -126h-110z" />
    <glyph glyph-name="FL00F5h" unicode="&#xf5;" horiz-adv-x="686" 
d="M192 468h317q122 -13 136 -135h1v-197q-14 -123 -137 -136h-317q-127 10 -142 136v197h1q13 124 141 135zM159 312v-145q0 -57 65 -57h246q69 0 69 60v142q-7 46 -69 46h-246q-58 0 -65 -46zM360 634l42 -60l45 60h108l-101 -126h-109l-42 60l-45 -60h-108l101 126h109z
" />
    <glyph glyph-name="FL00F6h" unicode="&#xf6;" horiz-adv-x="686" 
d="M509 468h-317q-128 -11 -141 -135h-1v-197q15 -126 142 -136h317q123 13 137 136v197h-1q-14 122 -136 135zM159 312q7 46 65 46h246q62 0 69 -46v-142q0 -60 -69 -60h-246q-65 0 -65 57v145zM316 516v125h-125v-125h125zM510 516v125h-125v-125h125z" />
    <glyph glyph-name="FL00F7h" unicode="&#xf7;" horiz-adv-x="500" 
d="M460 176v106h-410v-106h410zM320 0v125h-125v-125h125zM322 337v125h-125v-125h125z" />
    <glyph glyph-name="FL00F8h" unicode="&#xf8;" horiz-adv-x="686" 
d="M509 0q123 13 137 136v197h-1q-14 122 -136 135h-317q-128 -11 -141 -135h-1v-197q12 -113 110 -136h349zM539 312v-142q0 -60 -69 -60h-195l220 245q38 -8 44 -43zM159 312q7 46 65 46h153l-203 -233q-15 15 -15 42v145z" />
    <glyph glyph-name="FL00F9h" unicode="&#xf9;" 
d="M644 468v-332q-15 -126 -142 -136h-317q-124 13 -136 136v332h106v-298q0 -60 69 -60h246q66 0 66 60v298h108zM283 508l-67 125h125l67 -125h-125z" />
    <glyph glyph-name="FL00FAh" unicode="&#xfa;" 
d="M50 468v-332q15 -126 142 -136h317q124 13 136 136v332h-106v-298q0 -60 -69 -60h-246q-66 0 -66 60v298h-108zM411 508l67 125h-125l-67 -125h125z" />
    <glyph glyph-name="FL00FBh" unicode="&#xfb;" 
d="M50 468v-332q15 -126 142 -136h317q124 13 136 136v332h-106v-298q0 -60 -69 -60h-246q-66 0 -66 60v298h-108zM398 503l-42 60l-45 -60h-108l102 126h102l101 -126h-110z" />
    <glyph glyph-name="FL00FCh" unicode="&#xfc;" 
d="M50 468v-332q15 -126 142 -136h317q124 13 136 136v332h-106v-298q0 -60 -69 -60h-246q-66 0 -66 60v298h-108zM316 516v125h-125v-125h125zM510 516v125h-125v-125h125z" />
    <glyph glyph-name="FL00FDh" unicode="&#xfd;" horiz-adv-x="751" 
d="M528 104h-387v-104h570v468h-111v-292l-234 256q-41 36 -91 36h-225l89 -90h83l13 1q33 0 52 -19zM508 505l67 125h-125l-67 -125h125z" />
    <glyph glyph-name="FL00FEh" unicode="&#xfe;" horiz-adv-x="688" 
d="M50 0h115v298h284q88 0 88 -71q0 -14 -2 -27t-8 -23.5t-17 -17t-29 -6.5h-79v-93h135q43 12 68 41t44 86v84q-21 106 -138 131h-347v66h-114v-468z" />
    <glyph glyph-name="FL00FFh" unicode="&#xff;" horiz-adv-x="751" 
d="M528 104h-387v-104h570v468h-111v-292l-234 256q-41 36 -91 36h-225l89 -90h83l13 1q33 0 52 -19zM409 515v125h-125v-125h125zM603 515v125h-125v-125h125z" />
  </font>
</defs>
</svg>
